# xmcd
#
# Track frame offsets:
#	150
#	6555
#	30945
#	47250
#	65346
#	84840
#	111227
#	131503
#	150214
#	168492
#	191891
#	211189
#	236196
#	264280
#	294072
#	308525
#	325110
#
# Disc length: 4706 seconds
#
# Revision: 0
# Processed by: cddbd v1.5.1PL2 Copyright (c) Steve Scherf et al.
# Submitted via: EasyCDDAExtractor 8.0.2.1
#
DISCID=d0126011
DTITLE=Suroit - En concert à l'Anglicane de Levis
DYEAR=1900
DGENRE=Country
TTITLE0=Gaillarde
TTITLE1=Rivage
TTITLE2=Saint-Sauveur
TTITLE3=Des bard, des filles et du bourbon
TTITLE4=La route
TTITLE5=The appropriate dipstick
TTITLE6=La complainte des Lebel
TTITLE7=Falaise rouge
TTITLE8=Matelot
TTITLE9=Pointe sauvage
TTITLE10=Hommes de mer
TTITLE11=Jolies Marjolaines
TTITLE12=Medley cajun
TTITLE13=Jerry Holland
TTITLE14=Orage
TTITLE15=Celtic
TTITLE16=Coupons le gui
EXTD=
EXTT0=
EXTT1=
EXTT2=
EXTT3=
EXTT4=
EXTT5=
EXTT6=
EXTT7=
EXTT8=
EXTT9=
EXTT10=
EXTT11=
EXTT12=
EXTT13=
EXTT14=
EXTT15=
EXTT16=
PLAYORDER=
